<svg width="127" height="44" viewBox="0 0 127 44" fill="none" xmlns="http://www.w3.org/2000/svg">
<path d="M22 44L1.12356e-05 2.75L43.5 2.75L22 44Z" fill="white"/>
<path d="M21.9883 27.6562L28.0176 7.40625H33.8887L24.9766 33H21.1094L21.9883 27.6562ZM16.4336 7.40625L22.4453 27.6562L23.3594 33H19.457L10.5977 7.40625H16.4336ZM36.1457 23.6836V23.3145C36.1457 21.9199 36.3449 20.6367 36.7434 19.4648C37.1418 18.2812 37.7219 17.2559 38.4836 16.3887C39.2453 15.5215 40.1828 14.8477 41.2961 14.3672C42.4094 13.875 43.6867 13.6289 45.1281 13.6289C46.5695 13.6289 47.8527 13.875 48.9777 14.3672C50.1027 14.8477 51.0461 15.5215 51.8078 16.3887C52.5812 17.2559 53.1672 18.2812 53.5656 19.4648C53.9641 20.6367 54.1633 21.9199 54.1633 23.3145V23.6836C54.1633 25.0664 53.9641 26.3496 53.5656 27.5332C53.1672 28.7051 52.5812 29.7305 51.8078 30.6094C51.0461 31.4766 50.1086 32.1504 48.9953 32.6309C47.882 33.1113 46.6047 33.3516 45.1633 33.3516C43.7219 33.3516 42.4387 33.1113 41.3137 32.6309C40.2004 32.1504 39.257 31.4766 38.4836 30.6094C37.7219 29.7305 37.1418 28.7051 36.7434 27.5332C36.3449 26.3496 36.1457 25.0664 36.1457 23.6836ZM41.2082 23.3145V23.6836C41.2082 24.4805 41.2785 25.2246 41.4191 25.916C41.5598 26.6074 41.7824 27.2168 42.0871 27.7441C42.4035 28.2598 42.8137 28.6641 43.3176 28.957C43.8215 29.25 44.4367 29.3965 45.1633 29.3965C45.8664 29.3965 46.4699 29.25 46.9738 28.957C47.4777 28.6641 47.882 28.2598 48.1867 27.7441C48.4914 27.2168 48.7141 26.6074 48.8547 25.916C49.007 25.2246 49.0832 24.4805 49.0832 23.6836V23.3145C49.0832 22.541 49.007 21.8145 48.8547 21.1348C48.7141 20.4434 48.4855 19.834 48.1691 19.3066C47.8645 18.7676 47.4602 18.3457 46.9562 18.041C46.4523 17.7363 45.843 17.584 45.1281 17.584C44.4133 17.584 43.8039 17.7363 43.3 18.041C42.8078 18.3457 42.4035 18.7676 42.0871 19.3066C41.7824 19.834 41.5598 20.4434 41.4191 21.1348C41.2785 21.8145 41.2082 22.541 41.2082 23.3145ZM64.1371 18.1289V33H59.0746V13.9805H63.8383L64.1371 18.1289ZM69.8676 13.8574L69.7797 18.5508C69.5336 18.5156 69.2348 18.4863 68.8832 18.4629C68.5434 18.4277 68.2328 18.4102 67.9516 18.4102C67.2367 18.4102 66.6156 18.5039 66.0883 18.6914C65.5727 18.8672 65.1391 19.1309 64.7875 19.4824C64.4477 19.834 64.1898 20.2617 64.0141 20.7656C63.85 21.2695 63.7562 21.8438 63.7328 22.4883L62.7133 22.1719C62.7133 20.9414 62.8363 19.8105 63.0824 18.7793C63.3285 17.7363 63.6859 16.8281 64.1547 16.0547C64.6352 15.2812 65.2211 14.6836 65.9125 14.2617C66.6039 13.8398 67.3949 13.6289 68.2855 13.6289C68.5668 13.6289 68.8539 13.6523 69.1469 13.6992C69.4398 13.7344 69.6801 13.7871 69.8676 13.8574ZM84.2535 13.9805V17.5664H73.1793V13.9805H84.2535ZM75.9215 9.28711H80.984V27.2695C80.984 27.8203 81.0543 28.2422 81.1949 28.5352C81.3473 28.8281 81.5699 29.0332 81.8629 29.1504C82.1559 29.2559 82.525 29.3086 82.9703 29.3086C83.2867 29.3086 83.568 29.2969 83.8141 29.2734C84.0719 29.2383 84.2887 29.2031 84.4645 29.168L84.482 32.8945C84.0484 33.0352 83.5797 33.1465 83.0758 33.2285C82.5719 33.3105 82.0152 33.3516 81.4059 33.3516C80.2926 33.3516 79.3199 33.1699 78.4879 32.8066C77.6676 32.4316 77.0348 31.834 76.5895 31.0137C76.1441 30.1934 75.9215 29.1152 75.9215 27.7793V9.28711ZM97.6902 33.3516C96.2137 33.3516 94.8895 33.1172 93.7176 32.6484C92.5457 32.168 91.5496 31.5059 90.7293 30.6621C89.9207 29.8184 89.2996 28.8398 88.866 27.7266C88.4324 26.6016 88.2156 25.4062 88.2156 24.1406V23.4375C88.2156 21.9961 88.4207 20.6777 88.8309 19.4824C89.241 18.2871 89.827 17.25 90.5887 16.3711C91.3621 15.4922 92.2996 14.8184 93.4012 14.3496C94.5027 13.8691 95.7449 13.6289 97.1277 13.6289C98.4754 13.6289 99.6707 13.8516 100.714 14.2969C101.757 14.7422 102.63 15.375 103.333 16.1953C104.048 17.0156 104.587 18 104.95 19.1484C105.313 20.2852 105.495 21.5508 105.495 22.9453V25.0547H90.3777V21.6797H100.52V21.293C100.52 20.5898 100.391 19.9629 100.134 19.4121C99.8875 18.8496 99.5125 18.4043 99.0086 18.0762C98.5047 17.748 97.8602 17.584 97.075 17.584C96.407 17.584 95.8328 17.7305 95.3523 18.0234C94.8719 18.3164 94.4793 18.7266 94.1746 19.2539C93.8816 19.7812 93.659 20.4023 93.5066 21.1172C93.366 21.8203 93.2957 22.5938 93.2957 23.4375V24.1406C93.2957 24.9023 93.4012 25.6055 93.6121 26.25C93.8348 26.8945 94.1453 27.4512 94.5437 27.9199C94.9539 28.3887 95.4461 28.752 96.0203 29.0098C96.6062 29.2676 97.2684 29.3965 98.0066 29.3965C98.9207 29.3965 99.7703 29.2207 100.555 28.8691C101.352 28.5059 102.038 27.9609 102.612 27.2344L105.073 29.9062C104.675 30.4805 104.13 31.0312 103.438 31.5586C102.759 32.0859 101.938 32.5195 100.977 32.8594C100.016 33.1875 98.9207 33.3516 97.6902 33.3516ZM114.256 13.9805L117.402 19.7637L120.637 13.9805H126.033L120.654 23.2793L126.279 33H120.865L117.438 26.8828L114.01 33H108.596L114.221 23.2793L108.842 13.9805H114.256Z" fill="#0EA5E9"/>
</svg>
